#!OML:ASF E:\Style4\Style4.ASF
:FULLY-SPECIFIED
:DEGREES
2854
root 0.166286 16.3679 -0.0733903 3.84984 9.5066 5.85224
lowerback 14.0471 4.97819 0.532062
upperback 5.94661 6.6084 -1.56491
thorax -1.31187 3.33782 -2.89603
lowerneck 5.97126 9.63214 -1.42546
upperneck 1.89699 12.7059 -0.721999
head -0.417763 6.33984 -0.259027
rclavicle -1.74931e-014 -3.26007e-014
rhumerus -33.0419 11.1035 -60.6773
rradius 137.244
rwrist -72.2267
rhand 54.9608 -2.13766
rfingers 7.12502
rthumb 72.8022 14.0871
lclavicle -1.74931e-014 -3.26007e-014
lhumerus -12.7308 -12.5326 54.3892
lradius 140.346
lwrist 74.3215
lhand 36.839 47.6903
lfingers 7.12502
lthumb 59.7272 61.7538
rfemur -29.3831 -11.899 12.5651
rtibia 63.9951
rfoot -31.873 -21.9429
rtoes -14.3136
lfemur -29.7626 -3.87885 -25.9309
ltibia 58.3364
lfoot -29.8895 10.0984
ltoes -19.1572
2855
root 0.166199 16.3648 -0.0700338 3.85159 9.58191 5.84981
lowerback 14.0037 4.96091 0.660033
upperback 5.9596 6.60174 -1.62955
thorax -1.25288 3.33896 -3.02695
lowerneck 5.9862 9.56726 -1.35516
upperneck 1.85836 12.6236 -0.841688
head -0.419956 6.30072 -0.304268
rclavicle -9.62118e-014 4.85035e-014
rhumerus -33.0815 11.0502 -60.7986
rradius 137.243
rwrist -72.252
rhand 54.9464 -2.39576
rfingers 7.12502
rthumb 72.7953 13.7883
lclavicle -9.62118e-014 4.85035e-014
lhumerus -12.617 -12.6061 54.32
lradius 140.346
lwrist 74.3294
lhand 36.8632 47.6854
lfingers 7.12502
lthumb 59.748 61.7275
rfemur -29.3672 -11.9206 12.5695
rtibia 64.0294
rfoot -31.9143 -21.8567
rtoes -14.0641
lfemur -29.7734 -3.93046 -25.9242
ltibia 58.3719
lfoot -29.9332 10.0255
ltoes -18.9666
2856
root 0.165804 16.3623 -0.0681687 3.84484 9.65327 5.90488
lowerback 13.9945 4.95083 0.690565
upperback 5.98685 6.59206 -1.68681
thorax -1.20926 3.33682 -3.09897
lowerneck 5.97948 9.48588 -1.32013
upperneck 1.82685 12.5177 -0.979923
head -0.417586 6.24979 -0.347928
rclavicle 1.0138e-014 2.14687e-014
rhumerus -33.0621 11.0446 -60.8997
rradius 137.233
rwrist -72.2979
rhand 55.0159 -2.57295
rfingers 7.12502
rthumb 72.8286 13.8081
lclavicle 1.0138e-014 2.14687e-014
lhumerus -12.5148 -12.6289 54.2505
lradius 140.349
lwrist 74.3819
lhand 36.9042 47.7332
lfingers 7.12502
lthumb 59.7832 61.7391
rfemur -29.3485 -11.9686 12.5045
rtibia 64.0681
rfoot -31.9251 -21.9619
rtoes -14.1896
lfemur -29.7597 -3.99469 -25.9813
ltibia 58.3925
lfoot -29.9785 10.041
ltoes -19.2173
2857
root 0.16525 16.3606 -0.0689218 3.85195 9.70314 5.93627
lowerback 13.9841 4.91868 0.651025
upperback 6.00632 6.54522 -1.68539
thorax -1.1906 3.31332 -3.06713
lowerneck 5.96797 9.44422 -1.34
upperneck 1.81658 12.4613 -1.14303
head -0.409606 6.22343 -0.390974
rclavicle -1.05157e-013 7.95139e-015
rhumerus -32.9214 11.1697 -60.9396
rradius 137.196
rwrist -72.3147
rhand 55.0273 -2.53014
rfingers 7.12502
rthumb 72.8341 13.8834
lclavicle -1.05157e-013 7.95139e-015
lhumerus -12.5105 -12.5849 54.2696
lradius 140.353
lwrist 74.398
lhand 36.8182 47.7397
lfingers 7.12502
lthumb 59.7094 61.8215
rfemur -29.367 -11.9685 12.4714
rtibia 64.1051
rfoot -31.9165 -22.0723
rtoes -14.2688
lfemur -29.7708 -4.00931 -26.0144
ltibia 58.3974
lfoot -29.9649 10.1662
ltoes -19.7088
2858
root 0.164611 16.3611 -0.0690031 3.8572 9.74152 5.91041
lowerback 13.9957 4.89473 0.681708
upperback 5.99086 6.51725 -1.69007
thorax -1.21059 3.2995 -3.08707
lowerneck 5.91173 9.39379 -1.38322
upperneck 1.87257 12.3938 -1.17157
head -0.383924 6.18934 -0.3865
rclavicle 3.20043e-014 6.36111e-015
rhumerus -32.8868 11.213 -60.9978
rradius 137.218
rwrist -72.3214
rhand 55.1166 -2.55517
rfingers 7.12502
rthumb 72.8767 14.1128
lclavicle 3.20043e-014 6.36111e-015
lhumerus -12.5355 -12.5832 54.2617
lradius 140.352
lwrist 74.3761
lhand 36.768 47.8863
lfingers 7.12502
lthumb 59.6663 62.0121
rfemur -29.3723 -11.9313 12.5087
rtibia 64.1269
rfoot -31.9879 -22.0376
rtoes -14.0833
lfemur -29.7994 -3.99649 -25.9789
ltibia 58.4043
lfoot -29.893 10.072
ltoes -19.3626
2859
root 0.162287 16.3621 -0.0673803 3.82862 9.75845 5.96897
lowerback 14.0569 4.9045 0.630535
upperback 5.98343 6.52229 -1.72348
thorax -1.25227 3.30106 -3.10079
lowerneck 5.92655 9.32563 -1.35049
upperneck 1.85219 12.3049 -1.26115
head -0.385239 6.14635 -0.41703
rclavicle -7.95139e-016 0
rhumerus -32.9318 11.1825 -61.0732
rradius 137.265
rwrist -72.3372
rhand 55.194 -2.57677
rfingers 7.12502
rthumb 72.9133 14.3127
lclavicle -7.95139e-016 0
lhumerus -12.5162 -12.6165 54.2169
lradius 140.335
lwrist 74.4158
lhand 36.9416 47.9933
lfingers 7.12502
lthumb 59.8152 61.9661
rfemur -29.3295 -11.8938 12.4475
rtibia 64.1527
rfoot -31.9845 -22.0567
rtoes -14.2693
lfemur -29.7425 -3.98309 -26.038
ltibia 58.3979
lfoot -29.8806 10.0029
ltoes -19.1798
2860
root 0.1606 16.3628 -0.065023 3.80465 9.78967 5.94528
lowerback 14.0593 4.88529 0.651452
upperback 5.99697 6.4999 -1.72766
thorax -1.23774 3.29074 -3.1129
lowerneck 5.95962 9.29366 -1.31411
upperneck 1.78266 12.2631 -1.3878
head -0.402216 6.1277 -0.462666
rclavicle 1.25234e-014 3.18055e-015
rhumerus -32.8852 11.195 -61.1494
rradius 137.275
rwrist -72.3362
rhand 55.1546 -2.4823
rfingers 7.12502
rthumb 72.8947 14.2944
lclavicle 1.25234e-014 3.18055e-015
lhumerus -12.5159 -12.6069 54.1912
lradius 140.322
lwrist 74.4577
lhand 37.0442 48.0472
lfingers 7.12502
lthumb 59.9031 61.9288
rfemur -29.3048 -11.8719 12.4805
rtibia 64.1715
rfoot -31.9566 -22.1111
rtoes -14.346
lfemur -29.7121 -3.97096 -26.0022
ltibia 58.4098
lfoot -29.9338 9.9765
ltoes -19.394
2861
root 0.15945 16.3608 -0.0642884 3.80254 9.81529 5.92033
lowerback 14.0615 4.86302 0.665003
upperback 5.99801 6.47256 -1.7179
thorax -1.23905 3.27716 -3.1066
lowerneck 5.97812 9.2704 -1.37512
upperneck 1.73144 12.2271 -1.40895
head -0.423643 6.11019 -0.461974
rclavicle 2.28602e-014 -2.62396e-014
rhumerus -32.8592 11.2303 -61.1771
rradius 137.284
rwrist -72.2928
rhand 55.239 -2.32083
rfingers 7.12502
rthumb 72.9345 14.6982
lclavicle 2.28602e-014 -2.62396e-014
lhumerus -12.5568 -12.5817 54.2412
lradius 140.307
lwrist 74.4759
lhand 36.8382 48.25
lfingers 7.12502
lthumb 59.7265 62.3142
rfemur -29.3103 -11.8588 12.5123
rtibia 64.2039
rfoot -31.9727 -22.0894
rtoes -14.1978
lfemur -29.7292 -3.96704 -25.9637
ltibia 58.4281
lfoot -29.9655 9.90896
ltoes -19.2713
2862
root 0.159257 16.3588 -0.0642279 3.7988 9.81576 5.89267
lowerback 14.0721 4.8419 0.679572
upperback 5.99249 6.44649 -1.71343
thorax -1.25091 3.26404 -3.10775
lowerneck 6.00283 9.26026 -1.4192
upperneck 1.67791 12.2094 -1.40338
head -0.447442 6.10159 -0.456745
rclavicle 2.56432e-014 -2.22639e-014
rhumerus -32.8421 11.2746 -61.224
rradius 137.318
rwrist -72.2635
rhand 55.3128 -2.17645
rfingers 7.12502
rthumb 72.969 15.0554
lclavicle 2.56432e-014 -2.22639e-014
lhumerus -12.5944 -12.5406 54.2591
lradius 140.272
lwrist 74.4799
lhand 36.8293 48.3665
lfingers 7.12502
lthumb 59.7189 62.4386
rfemur -29.3206 -11.83 12.5433
rtibia 64.227
rfoot -31.9364 -22.1386
rtoes -14.319
lfemur -29.7522 -3.92685 -25.9354
ltibia 58.4469
lfoot -29.9595 9.92814
ltoes -19.3167
2863
root 0.15941 16.3579 -0.0635255 3.81072 9.8185 5.91883
lowerback 14.0626 4.81928 0.640763
upperback 5.98631 6.41126 -1.73547
thorax -1.25604 3.24602 -3.10381
lowerneck 6.04281 9.24215 -1.37525
upperneck 1.63491 12.1864 -1.46748
head -0.460857 6.09152 -0.485122
rclavicle 6.48038e-014 -1.90833e-014
rhumerus -32.7858 11.3207 -61.2952
rradius 137.335
rwrist -72.2941
rhand 55.2667 -2.32639
rfingers 7.12502
rthumb 72.9474 14.7724
lclavicle 6.48038e-014 -1.90833e-014
lhumerus -12.6829 -12.5628 54.2506
lradius 140.243
lwrist 74.437
lhand 36.8916 48.3276
lfingers 7.12502
lthumb 59.7724 62.3447
rfemur -29.3398 -11.8241 12.5139
rtibia 64.2591
rfoot -31.9351 -22.151
rtoes -14.2992
lfemur -29.7579 -3.9215 -25.9643
ltibia 58.4522
lfoot -29.9997 9.93789
ltoes -19.34
2864
root 0.15993 16.3585 -0.062693 3.80953 9.81727 5.91732
lowerback 14.0537 4.80629 0.644327
upperback 5.98856 6.39462 -1.74116
thorax -1.24885 3.23802 -3.10836
lowerneck 6.10072 9.22395 -1.33499
upperneck 1.5696 12.1623 -1.55107
head -0.483238 6.08137 -0.520447
rclavicle 3.85642e-014 -4.21423e-014
rhumerus -32.7233 11.3306 -61.3249
rradius 137.332
rwrist -72.353
rhand 55.1713 -2.48062
rfingers 7.12502
rthumb 72.9026 14.344
lclavicle 3.85642e-014 -4.21423e-014
lhumerus -12.7345 -12.5644 54.2496
lradius 140.258
lwrist 74.4422
lhand 36.7802 48.1194
lfingers 7.12502
lthumb 59.6768 62.2345
rfemur -29.3406 -11.8101 12.5101
rtibia 64.2781
rfoot -31.9514 -22.1388
rtoes -14.4397
lfemur -29.7492 -3.90783 -25.964
ltibia 58.4431
lfoot -29.9993 9.98448
ltoes -19.557
